<svg t="1679064619774" class="icon" viewBox="0 0 1024 1024" version="1.1" xmlns="http://www.w3.org/2000/svg" p-id="3539"><path d="M767 879.3H100c-19.3 0-35 15.7-35 35s15.7 35 35 35h667c19.3 0 35-15.7 35-35s-15.7-35-35-35zM524.3 429.2L720 260.1c14.6-12.6 16.2-34.7 3.6-49.4-12.6-14.6-34.7-16.2-49.4-3.6L510.7 348.5c-5.3 4.6-13.2 4.6-18.5 0l-82.2-71c-13.1-11.4-32.6-11.4-45.8 0L211.7 409.3c-14.6 12.6-16.2 34.7-3.6 49.4 12.6 14.6 34.7 16.2 49.4 3.6l120.4-104.1c5.3-4.6 13.2-4.6 18.5 0l82.2 71c13.1 11.4 32.6 11.4 45.7 0z" p-id="3540"></path><path d="M943.2 853.6l-83.5-83.5c29.7-37.4 45.7-83.5 45.7-131.9 0-3.5-0.1-6.9-0.3-10.4h0.7V135.5c0-36.4-29.6-66-66-66H135.5c-36.4 0-66 29.6-66 66V684c0 36.4 29.6 66 66 66h375.6c37.6 60.8 104.8 101.4 181.4 101.4 41.6 0 81.4-11.9 115.5-33.9l85.8 85.8c13.7 13.7 35.8 13.7 49.5 0 13.6-13.8 13.6-36-0.1-49.7zM139.5 679.9V139.5H836v341.4c-37.9-34.6-88.3-55.8-143.6-55.8-117.5 0-213.1 95.6-213.1 213.1 0 14.3 1.4 28.2 4.1 41.7H139.5z m552.9 101.4c-78.9 0-143.1-64.2-143.1-143.1s64.2-143.1 143.1-143.1 143.1 64.2 143.1 143.1-64.2 143.1-143.1 143.1z" p-id="3541"></path></svg>