<svg t="1679064561138" class="icon" viewBox="0 0 1024 1024" version="1.1" xmlns="http://www.w3.org/2000/svg" p-id="2451"><path d="M711.893333 533.333333a34.986667 34.986667 0 1 0-49.493333-49.706666l-201.386667 200.96-101.12-100.48a35.2 35.2 0 0 0-51.84 47.36l2.346667 2.346666 125.866667 125.226667a34.773333 34.773333 0 0 0 24.746666 10.24 36.053333 36.053333 0 0 0 24.746667-10.24z m-376.746666-44.586666h211.2a35.2 35.2 0 0 0 5.333333-70.4H335.146667a35.2 35.2 0 0 0 0 70.4z m0-164.266667h352a35.2 35.2 0 0 0 5.333333-70.4H335.146667a35.2 35.2 0 0 0 0 70.4z" p-id="2452"></path><path d="M853.333333 42.666667H171.733333A35.2 35.2 0 0 0 136.533333 77.866667v868.266666A35.2 35.2 0 0 0 171.946667 981.333333h499.413333a34.986667 34.986667 0 0 0 24.32-9.813333l90.88-86.826667 90.453333-89.173333a36.266667 36.266667 0 0 0 10.453334-25.173333V77.866667A35.2 35.2 0 0 0 853.333333 42.666667zM206.933333 113.066667h611.2v580.053333h-192a35.626667 35.626667 0 0 0-35.413333 35.2v182.613333H207.786667z m530.56 721.066666L661.333333 907.52v-144h149.333334z" p-id="2453"></path></svg>