<svg width="24" height="24" viewBox="0 0 24 24" fill="none" xmlns="http://www.w3.org/2000/svg">
<path d="M22.0265 9.87682C22.2889 9.08871 22.38 8.25364 22.2935 7.42751C22.2071 6.60137 21.9452 5.80323 21.5253 5.08651C20.9029 4.00244 19.9521 3.14415 18.8103 2.63547C17.6684 2.12679 16.3944 1.99403 15.1722 2.25636C14.6209 1.63508 13.9433 1.13872 13.1846 0.800517C12.426 0.462311 11.6039 0.290056 10.7733 0.295281C9.52367 0.292265 8.30538 0.686163 7.29406 1.42018C6.28274 2.1542 5.53065 3.19042 5.14621 4.37944C4.33215 4.54607 3.56309 4.88469 2.89049 5.37262C2.21789 5.86055 1.65729 6.48654 1.24621 7.20867C0.618824 8.28974 0.351017 9.54214 0.481417 10.7853C0.611816 12.0284 1.13368 13.1979 1.97175 14.1253C1.70934 14.9134 1.61831 15.7485 1.70475 16.5746C1.79119 17.4007 2.05312 18.1989 2.47298 18.9156C3.09546 19.9996 4.04621 20.8579 5.18807 21.3665C6.32992 21.8752 7.60385 22.008 8.82606 21.7457C9.37735 22.367 10.055 22.8634 10.8136 23.2016C11.5723 23.5398 12.3944 23.712 13.225 23.7068C14.4752 23.7101 15.6941 23.316 16.7058 22.5815C17.7176 21.847 18.4698 20.8101 18.8539 19.6204C19.668 19.4537 20.437 19.1151 21.1096 18.6272C21.7822 18.1392 22.3428 17.5133 22.7539 16.7911C23.3805 15.7101 23.6477 14.4581 23.517 13.2154C23.3863 11.9728 22.8644 10.8038 22.0265 9.87682ZM13.2268 22.1764C12.2006 22.1778 11.2065 21.8184 10.4184 21.161C10.4539 21.1416 10.5162 21.1074 10.5568 21.0825L15.2184 18.3899C15.3354 18.3233 15.4325 18.2268 15.4999 18.1102C15.5672 17.9937 15.6022 17.8613 15.6014 17.7267V11.1548L17.5718 12.2925C17.5821 12.2977 17.591 12.3053 17.5977 12.3147C17.6044 12.3241 17.6086 12.3351 17.6101 12.3465V17.789C17.6086 18.9514 17.1465 20.0659 16.3249 20.8882C15.5033 21.7106 14.3893 22.1738 13.2268 22.1764ZM3.80037 18.1504C3.2863 17.2621 3.10103 16.2214 3.27698 15.2104C3.3116 15.2311 3.37206 15.2681 3.41544 15.293L8.07698 17.9856C8.19315 18.0535 8.32528 18.0893 8.45983 18.0893C8.59438 18.0893 8.72651 18.0535 8.84268 17.9856L14.5339 14.6994V16.9748C14.5346 16.9864 14.5323 16.998 14.5274 17.0086C14.5225 17.0191 14.5151 17.0283 14.5058 17.0353L9.79344 19.7561C8.78549 20.3366 7.58841 20.4935 6.46487 20.1925C5.34132 19.8915 4.38307 19.157 3.80037 18.1504ZM2.57406 7.9739C3.0859 7.08449 3.89432 6.4035 4.85775 6.0502C4.85775 6.09036 4.85544 6.16144 4.85544 6.21082V11.5961C4.85463 11.7305 4.88964 11.8628 4.95689 11.9793C5.02413 12.0958 5.12118 12.1923 5.23806 12.2588L10.9293 15.5445L8.95898 16.6822C8.94926 16.6886 8.9381 16.6925 8.9265 16.6936C8.91491 16.6946 8.90324 16.6928 8.89252 16.6882L4.17975 13.9651C3.17356 13.3824 2.4395 12.4245 2.1385 11.3014C1.8375 10.1783 1.99413 8.98169 2.57406 7.9739ZM18.7621 11.741L13.0708 8.45482L15.0411 7.31759C15.0509 7.31119 15.062 7.30729 15.0736 7.30624C15.0852 7.3052 15.0969 7.30703 15.1076 7.31159L19.8204 10.0324C20.5424 10.4494 21.1306 11.0635 21.5162 11.8028C21.9018 12.5421 22.0689 13.3759 21.9977 14.2067C21.9266 15.0374 21.6202 15.8307 21.1145 16.4937C20.6089 17.1567 19.9248 17.6618 19.1424 17.9501C19.1424 17.9094 19.1424 17.8384 19.1424 17.789V12.4037C19.1435 12.2695 19.1088 12.1373 19.042 12.0208C18.9752 11.9044 18.8785 11.8078 18.7621 11.741ZM20.7231 8.78944C20.6885 8.76821 20.6281 8.73174 20.5847 8.70682L15.9231 6.0142C15.8069 5.94641 15.6748 5.91068 15.5403 5.91068C15.4058 5.91068 15.2736 5.94641 15.1574 6.0142L9.46621 9.30036V7.02497C9.46556 7.01336 9.46779 7.00176 9.4727 6.99121C9.47761 6.98066 9.48506 6.97149 9.49437 6.96451L14.2067 4.24605C14.9286 3.82978 15.7541 3.62769 16.5867 3.66343C17.4193 3.69917 18.2245 3.97126 18.9081 4.44787C19.5916 4.92449 20.1254 5.58591 20.4468 6.35476C20.7682 7.12361 20.8641 7.9681 20.7231 8.78944ZM8.39498 12.845L6.42421 11.7073C6.41388 11.7021 6.40497 11.6945 6.39829 11.6851C6.39161 11.6757 6.38735 11.6647 6.38591 11.6533V6.21082C6.38645 5.37725 6.62442 4.56107 7.07197 3.85783C7.51951 3.15459 8.15812 2.59338 8.91303 2.23989C9.66795 1.8864 10.5079 1.75526 11.3347 1.86182C12.1614 1.96838 12.9407 2.30823 13.5813 2.84159C13.5458 2.86097 13.4839 2.89513 13.4428 2.92005L8.78129 5.61267C8.66433 5.67916 8.56718 5.7756 8.49986 5.89209C8.43253 6.00858 8.39744 6.14089 8.39821 6.27544L8.39498 12.845ZM9.46529 10.5373L12.0001 9.07328L14.5348 10.5364V13.4634L12.0001 14.9265L9.46529 13.4634V10.5373Z" fill="url(#paint0_linear_46_1046)"/>
<defs>
<linearGradient id="paint0_linear_46_1046" x1="19" y1="21.5" x2="5" y2="3" gradientUnits="userSpaceOnUse">
<stop stop-color="#5EB0EF"/>
<stop offset="0.510417" stop-color="#4980D0"/>
<stop offset="1" stop-color="#3451B2"/>
</linearGradient>
</defs>
</svg>
