<svg width="54" height="46" viewBox="0 0 54 46" fill="none" xmlns="http://www.w3.org/2000/svg">
<g id="WuBlogLogo">
<path id="Vector 4" d="M54 46L37.6584 37.8292C36.642 37.321 36 36.2822 36 35.1459V2.42705C36 1.31198 37.1735 0.586734 38.1708 1.08541L52.3416 8.17082C53.358 8.679 54 9.71779 54 10.8541V46Z" fill="#006ADC"/>
<path id="Vector 3" d="M54 46L37.1876 37.5938C36.4094 37.2047 35.7461 36.6192 35.2635 35.8952L17 8.5L35 17.5L54 46Z" fill="#3451B2"/>
<path id="Vector 2" d="M18 46L4.06906 39.0345C1.76232 37.8812 0.71128 35.1625 1.64229 32.7574L12 6L35 17.5L18 46Z" fill="#0070F3"/>
<path id="Vector 1" d="M18 46L1.65836 37.8292C0.642007 37.321 0 36.2822 0 35.1459V2.42705C0 1.31198 1.17347 0.586734 2.17082 1.08541L16.3416 8.17082C17.358 8.679 18 9.71779 18 10.8541V46Z" fill="#5EB0EF"/>
</g>
</svg>
